<?xml version="1.0" encoding="UTF-8"?>
<!DOCTYPE svg PUBLIC "-//W3C//DTD SVG 1.1//EN" "http://www.w3.org/Graphics/SVG/1.1/DTD/svg11.dtd">
<!-- Creator: CorelDRAW 2021 (64-Bit) -->
<svg xmlns="http://www.w3.org/2000/svg" xml:space="preserve" width="0.574291in" height="0.408917in" version="1.1" style="shape-rendering:geometricPrecision; text-rendering:geometricPrecision; image-rendering:optimizeQuality; fill-rule:evenodd; clip-rule:evenodd"
viewBox="0 0 76.55 54.5"
 xmlns:xlink="http://www.w3.org/1999/xlink"
 xmlns:xodm="http://www.corel.com/coreldraw/odm/2003">
 <defs>
  <style type="text/css">
   <![CDATA[
    .fil0 {fill:black}
   ]]>
  </style>
 </defs>
 <g id="Layer_x0020_1">
  <metadata id="CorelCorpID_0Corel-Layer"/>
  <path class="fil0" d="M54.78 54.5c-1.4,0 -2.29,-0.34 -3.35,-1.15 -0.91,-0.69 -1.36,-1.49 -1.36,-2.93 0,-3.31 2.27,-4.41 4.11,-6.25 0.98,-0.98 2.74,-2.84 3.65,-3.57l1.06 -1.03c0.25,-0.21 0.33,-0.23 0.57,-0.47 1.66,-1.65 2.44,-2.43 3.83,-4.54 0.36,-0.55 1.51,-2.03 1.63,-2.55 -1.76,0 -3.15,-0.1 -4.92,-0.1l-37.45 0c-2.24,0 -4.25,0.1 -6.38,0.1 -2.37,0 -10.92,0.19 -12.6,-0.17 -3.81,-0.81 -4.79,-5.52 -1.92,-7.65 1.47,-1.09 2.96,-1.07 5.41,-1.07 1.08,0 2.16,0 3.24,0 1.19,0 1.97,0.1 3.14,0.1 17.26,-0.01 34.52,0 51.78,0 -0.13,-0.24 -0.16,-0.38 -0.28,-0.66 -0.13,-0.3 -0.22,-0.39 -0.38,-0.67 -0.51,-0.9 -0.86,-1.73 -1.49,-2.69 -1.51,-2.31 -3.33,-3.71 -5.04,-5.42l-3.24 -3.03c-1.38,-1.4 -4.42,-3.93 -4.42,-6.04 0,-1.52 0.17,-2.32 1.18,-3.32 1.45,-1.43 1.67,-1.39 3.64,-1.39 1.99,0 3.32,1.68 4.58,2.95 0.31,0.31 0.41,0.52 0.73,0.84l4.71 4.6c3.09,3.1 6.48,5.78 8.77,9.64 3.43,5.81 3.5,13.05 -0.33,18.93 -2.01,3.09 -3.55,3.93 -5.88,6.26 -1.04,1.04 -2,2 -3.03,3.03 -0.54,0.54 -1.02,0.92 -1.57,1.46l-4.44 4.66c-0.97,0.97 -2.48,2.12 -3.95,2.12z"/>
 </g>
</svg>
