<?xml version="1.0" encoding="UTF-8"?>
<!DOCTYPE svg PUBLIC "-//W3C//DTD SVG 1.1//EN" "http://www.w3.org/Graphics/SVG/1.1/DTD/svg11.dtd">
<!-- Creator: CorelDRAW 2021 (64-Bit) -->
<svg xmlns="http://www.w3.org/2000/svg" xml:space="preserve" width="1.90607in" height="1.90607in" version="1.1" style="shape-rendering:geometricPrecision; text-rendering:geometricPrecision; image-rendering:optimizeQuality; fill-rule:evenodd; clip-rule:evenodd"
viewBox="0 0 1267.39 1267.39"
 xmlns:xlink="http://www.w3.org/1999/xlink"
 xmlns:xodm="http://www.corel.com/coreldraw/odm/2003">
 <defs>
  <style type="text/css">
   <![CDATA[
    .fil0 {fill:black}
   ]]>
  </style>
 </defs>
 <g id="Layer_x0020_1">
  <metadata id="CorelCorpID_0Corel-Layer"/>
  <g id="_2710719160016">
   <path class="fil0" d="M59.41 633.7c0,-36.48 6.82,-94.13 15.32,-128.25 27.08,-108.67 74.56,-198.03 153.62,-277.09 50.21,-50.21 126.57,-104.04 193.99,-127.81 157.14,-55.39 290.51,-56.99 447.23,10.13 17.4,7.45 31.03,15.81 47.17,24.62 44.97,24.55 86.37,57.12 122.3,93.06 61.57,61.57 109.92,137.59 137.71,221.22 59.31,178.53 31.71,356.04 -72.21,511.39 -34.03,50.87 -92.7,109.54 -143.57,143.57 -24.93,16.67 -63.72,40.33 -91.39,52.18 -35.99,15.42 -67.6,25.97 -107.63,35.94 -58.27,14.52 -134.53,19.22 -195.23,10.52 -162.61,-23.31 -311.13,-103.6 -403.86,-242.21 -20.86,-31.18 -49.18,-78.66 -62.31,-115.92 -25.15,-71.35 -41.14,-133.71 -41.14,-211.35zm554.3 -633.7l43.71 0c44.89,1.52 89.66,7.7 133.25,18.77 56.43,14.34 114.51,38.44 162.84,67.37 46.17,27.64 70.82,46.21 109.01,81.59 34.44,31.91 42.45,39.99 74.01,79.46 80.99,101.28 126.39,232.9 130.85,366.55l0 43.71c-1.52,44.88 -7.7,89.64 -18.77,133.22 -20.27,79.75 -43.45,122.18 -82.57,187.24 -18.41,30.62 -42.36,58.68 -66.39,84.61 -35.89,38.74 -59.21,59.36 -101.03,89.58 -24.51,17.71 -69.1,44.74 -96.87,56.6 -37.81,16.14 -69.31,29.47 -113.07,40.41 -70.59,17.64 -104.04,18.27 -173.91,18.29l-3.36 0c-121.18,0 -273.44,-56.25 -366.93,-133.09 -54.61,-44.89 -87.45,-78.05 -129.19,-135.67 -17.64,-24.35 -44.81,-69.25 -56.6,-96.87 -47.47,-111.19 -58.69,-167.04 -58.69,-290.33 0,-87.2 30.49,-188.94 59.37,-247.57 17.36,-35.25 35.28,-65.8 56.95,-96.52 5.68,-8.05 10.21,-14.86 16.77,-22.84 38.95,-47.38 65.9,-75.09 114.1,-113.63 101.3,-81.01 232.89,-126.39 366.51,-130.85z"/>
   <path class="fil0" d="M324.27 465.37c11.98,6.34 63.26,48.85 75.33,58.34 26.19,20.57 50.3,39.69 75.99,60.15l112.97 90.01c51.62,42.23 46.9,35.66 126.03,-28.58 18.17,-14.75 216.55,-173.59 228.51,-179.92l0 329.22c0.01,14.24 4.78,39.6 -9.9,39.6l-599.04 0c-14.37,0 -9.92,-23.19 -9.91,-37.13l0 -331.7zm59.41 -32.18l500.02 0 -124.09 98.69c-27.2,21.67 -102.48,83.64 -125.92,99.34l-241.89 -191.3c-3.18,-2.46 -5.59,-4.53 -8.12,-6.73zm-121.29 17.33l0 366.35c0,11.91 2.25,24.48 5.86,33.75 11.73,30.16 41.77,45.46 73.36,45.46l584.19 0c47.26,0 79.21,-31.96 79.21,-79.21l0 -366.35c0,-11.91 -2.25,-24.48 -5.86,-33.75 -6.48,-16.67 -22.93,-33.12 -39.6,-39.6 -9.27,-3.6 -21.84,-5.86 -33.75,-5.86l-584.19 0c-47.36,0 -79.21,31.66 -79.21,79.21z"/>
  </g>
 </g>
</svg>
