<?xml version="1.0" encoding="UTF-8"?>
<!DOCTYPE svg PUBLIC "-//W3C//DTD SVG 1.1//EN" "http://www.w3.org/Graphics/SVG/1.1/DTD/svg11.dtd">
<!-- Creator: CorelDRAW 2021 (64-Bit) -->
<svg xmlns="http://www.w3.org/2000/svg" xml:space="preserve" width="5.33266in" height="3.74953in" version="1.1" style="shape-rendering:geometricPrecision; text-rendering:geometricPrecision; image-rendering:optimizeQuality; fill-rule:evenodd; clip-rule:evenodd"
viewBox="0 0 3849.7 2706.82"
 xmlns:xlink="http://www.w3.org/1999/xlink"
 xmlns:xodm="http://www.corel.com/coreldraw/odm/2003">
 <defs>
  <style type="text/css">
   <![CDATA[
    .fil0 {fill:black}
   ]]>
  </style>
 </defs>
 <g id="Layer_x0020_1">
  <metadata id="CorelCorpID_0Corel-Layer"/>
  <g id="_1390506450368">
   <path class="fil0" d="M-0 1338.37c0,128.89 83.64,210.53 195.49,210.53l3458.71 0c257.85,0 257.85,-390.99 0,-390.99l-3458.71 0c-99.52,0 -195.49,83.5 -195.49,180.45z"/>
   <path class="fil0" d="M962.42 180.45l0 37.6c0,83.96 88.98,172.93 172.94,172.93l2541.4 0c83.96,0 172.93,-88.98 172.93,-172.93 0,-152.97 -88.48,-218.05 -240.61,-218.05l-2406.06 0c-126.87,0 -240.61,62.34 -240.61,180.45z"/>
   <path class="fil0" d="M1729.36 2503.81c0,149.01 115.62,203.01 255.64,203.01l1624.09 0c162.46,0 232.88,-85.81 240.61,-177.03l0 -34.03c-7.45,-92.29 -75.16,-179.92 -172.93,-179.92l-1766.95 0c-92.63,0 -180.45,94.52 -180.45,187.98z"/>
  </g>
 </g>
</svg>
