<?xml version="1.0" encoding="UTF-8"?>
<!DOCTYPE svg PUBLIC "-//W3C//DTD SVG 1.1//EN" "http://www.w3.org/Graphics/SVG/1.1/DTD/svg11.dtd">
<!-- Creator: CorelDRAW 2021 (64-Bit) -->
<svg xmlns="http://www.w3.org/2000/svg" xml:space="preserve" width="1.49772in" height="1.49777in" version="1.1" style="shape-rendering:geometricPrecision; text-rendering:geometricPrecision; image-rendering:optimizeQuality; fill-rule:evenodd; clip-rule:evenodd"
viewBox="0 0 1893.32 1893.37"
 xmlns:xlink="http://www.w3.org/1999/xlink"
 xmlns:xodm="http://www.corel.com/coreldraw/odm/2003">
 <defs>
  <style type="text/css">
   <![CDATA[
    .fil0 {fill:black}
   ]]>
  </style>
 </defs>
 <g id="Layer_x0020_1">
  <metadata id="CorelCorpID_0Corel-Layer"/>
  <path class="fil0" d="M698.97 795c0,73.04 147.64,233.81 209.65,285.91 44.01,36.97 138.32,113.5 193.45,113.5 51.36,0 108.79,-118.34 155.33,-118.34 13.66,0 170.12,152.08 170.12,173.82 0,23.71 -84.55,104.64 -104.55,121.04 -47.05,38.55 -130.62,16.41 -179.82,0.61 -80.47,-25.84 -189.94,-89.91 -256.11,-139.61 -48,-36.06 -113.29,-90.84 -150,-134.76 -35.51,-42.48 -70.48,-82.31 -100.96,-128.33 -68.61,-103.6 -133.12,-213.03 -133.12,-343.95 0,-17.46 11.03,-44.32 19.46,-54.51 12.85,-15.54 102.25,-108.22 121.07,-108.22 20.45,0 173.82,153.37 173.82,173.82 0,49.05 -118.34,97.06 -118.34,159.03zm259.15 1098.37l-17.28 0c-138.02,-1.27 -275.49,-30.2 -394.78,-87.48 -64.99,-31.21 -124.39,-65.35 -178.78,-109.68l-61.88 -52.76c-21.87,-16.89 -40.04,-36.27 -57.06,-57.58 -9.62,-12.04 -17.41,-17.41 -28.05,-31.12 -51.94,-66.91 -97.19,-130.53 -134.01,-209.93 -60.6,-130.68 -86.27,-256.13 -86.27,-424.09 0,-204.71 78.47,-407.96 197.15,-553.58 9,-11.04 16.66,-20.35 24.71,-30.77 23.93,-31 55.22,-63.89 85.64,-88.18l63.88 -54.46c11.88,-9.3 20.75,-14.66 32.29,-23.19 45.22,-33.44 93.33,-60.5 144.88,-84.4 245.19,-113.7 553.89,-116.43 798.88,1.2 65,31.21 124.37,65.36 178.78,109.68l61.2 53.45c11.04,10.23 18.18,14.33 29.66,25.81l55.66 62.68c9.87,11.75 17.25,19.99 26.88,32.29 9.3,11.88 14.66,20.75 23.19,32.29 9.08,12.29 15.68,21.26 23.93,35.24 21.9,37.11 41.82,69.42 60.47,109.64 88.91,191.74 113.02,437.61 53.17,649.85 -9.71,34.44 -54.44,48.48 -80.93,21.41 -21.68,-22.16 -7.44,-64.29 -1.29,-88.84 4.25,-16.94 6.11,-31.42 9.17,-50.01 27.67,-167.87 -2.08,-351.4 -68.87,-495.43 -42.32,-91.27 -103.09,-173.93 -169.83,-240.68 -67.29,-67.28 -148.66,-127.15 -240.68,-169.83 -127.18,-58.98 -233.36,-78.88 -390.8,-78.88 -177.52,0 -353.62,69.42 -489.73,175.95 -67.18,52.59 -126.68,112.59 -175.98,182.75 -86.22,122.69 -155.3,286.04 -155.3,454.91l0 73.97c0,181.94 77.35,351.21 179.13,486.55l47.35 56.2c8.94,8.84 15.16,15.09 24.07,24 9.46,9.46 16.18,16.7 25.81,25.96l56.98 46.57c11.3,9.08 17.17,13.58 29.82,21.96l128.65 74.75c198.04,97.55 507.23,109.7 702.74,11.05 75.67,-38.18 173.8,-103.32 173.8,-203.42 0,-36.32 -24.2,-87.05 -51.78,-107.25 -21.64,14.49 -40,37.08 -65.21,49.43 -181.78,89.03 -504.48,-129.07 -645.77,-270.4 -63.52,-63.53 -144.38,-161.12 -186.43,-238.87 -60.77,-112.33 -156.12,-294.69 -84.26,-421.98 31.37,-55.57 143.14,-168.48 197.65,-168.48 48.69,0 80.57,11.85 111.93,43.4 23.06,23.19 43.41,43.52 66.52,66.62 35.69,35.69 106.32,91.17 106.32,156.25 0,84.08 -77.14,115.94 -110.94,166.42 8.72,37.42 61.47,99.45 89.72,128.47 26.96,27.69 38.9,44.7 71.85,72.38 29.65,24.91 90.36,79.1 126.89,87.61 42.74,-28.62 136.6,-188.53 256.12,-67.51l136.89 136.77c59.89,62 47.24,129.85 -4.7,189.61 20.72,30.94 29.32,25.61 55.49,77.64 70.03,139.27 -22.94,284.53 -140.71,354.9 -38.48,22.99 -75.07,42.46 -119.61,57.9 -99.66,34.55 -207.95,52.39 -316.35,53.2z"/>
 </g>
</svg>
