<?xml version="1.0" encoding="UTF-8"?>
<!DOCTYPE svg PUBLIC "-//W3C//DTD SVG 1.1//EN" "http://www.w3.org/Graphics/SVG/1.1/DTD/svg11.dtd">
<!-- Creator: CorelDRAW 2021 (64-Bit) -->
<svg xmlns="http://www.w3.org/2000/svg" xml:space="preserve" width="1.37669in" height="1.37687in" version="1.1" style="shape-rendering:geometricPrecision; text-rendering:geometricPrecision; image-rendering:optimizeQuality; fill-rule:evenodd; clip-rule:evenodd"
viewBox="0 0 354.34 354.39"
 xmlns:xlink="http://www.w3.org/1999/xlink"
 xmlns:xodm="http://www.corel.com/coreldraw/odm/2003">
 <defs>
  <style type="text/css">
   <![CDATA[
    .fil0 {fill:black}
   ]]>
  </style>
 </defs>
 <g id="Layer_x0020_1">
  <metadata id="CorelCorpID_0Corel-Layer"/>
  <g id="_2710537528320">
   <path class="fil0" d="M11.81 66.49c0,-11.29 7.9,-19.19 19.19,-19.19l28.05 0c0,11.82 -1.55,19.99 6.43,28.26 15.58,16.16 40.81,2.85 40.81,-14.24l0 -14.03 47.24 0c0,11.82 -1.54,19.99 6.43,28.26 9.21,9.55 24.71,9.68 34.02,0.37 8.42,-8.42 6.8,-17 6.8,-28.64l47.25 0c0,11.82 -1.55,19.99 6.43,28.26 15.58,16.16 40.81,2.85 40.81,-14.24l0 -14.03 28.05 0c11.29,0 19.19,7.9 19.19,19.19l0 39.86 -330.71 0 0 -39.86zm248.04 -9.6l0 -31c0,-18.82 23.62,-18.21 23.62,0l0 31c0,18.46 -23.62,18.46 -23.62,0zm-94.49 0l0 -31c0,-18.82 23.62,-18.21 23.62,0l0 31c0,18.46 -23.62,18.46 -23.62,0zm-94.49 0l0 -31c0,-18.82 23.62,-18.21 23.62,0l0 31c0,18.46 -23.62,18.46 -23.62,0zm-11.81 -34.7l0 13.29 -31.74 0c-13.62,0 -27.31,13.7 -27.31,27.31l0 240.65c0,13.62 13.7,27.31 27.31,27.31l167.57 0c7.16,0 9.51,-11.68 -1.43,-11.86 -46.64,-0.75 -99.71,0.05 -146.95,0.05 -8.6,0 -18.49,0.88 -24.59,-1.98 -5.81,-2.72 -10.1,-8.98 -10.1,-17.21l0 -181.6 330.71 0 0 100.4c0,7.92 11.81,7.92 11.81,0l0 -155.76c0,-13.62 -13.7,-27.31 -27.31,-27.31l-31.74 0c0,-11.63 1.62,-20.21 -6.8,-28.64 -14.56,-14.56 -40.45,-4.22 -40.45,15.35l0 13.29 -47.25 0c0,-11.63 1.62,-20.21 -6.8,-28.64 -14.56,-14.56 -40.45,-4.22 -40.45,15.35l0 13.29 -47.24 0c0,-11.63 1.62,-20.21 -6.8,-28.64 -14.56,-14.56 -40.45,-4.22 -40.45,15.35z"/>
   <path class="fil0" d="M212.6 277.61c0,-17.17 7.61,-33.34 18.8,-45.42 7.24,-7.82 20.41,-15.37 31.2,-17.52 19.04,-3.8 35.82,-1.35 51.44,9.49 6.13,4.25 12.27,9.84 16.39,16.09 2.48,3.76 3.96,6 5.95,10.29 1.88,4.04 2.96,7.41 4.09,12.15 8.39,35.37 -13.66,69.89 -48.58,77.96 -10.65,2.46 -17.99,2.46 -28.64,0 -4.84,-1.12 -8.4,-2.27 -12.25,-4 -18.48,-8.29 -31.86,-24.75 -36.48,-44.73 -0.82,-3.56 -1.92,-10.54 -1.92,-14.32zm-11.81 -4.43c0,14.97 0.7,24.06 7.37,37.66 11.97,24.4 38.27,43.54 64.97,43.54l7.38 0c38.66,0 73.82,-35.16 73.82,-73.82 0,-14.41 -1.17,-23.55 -7.37,-36.18 -8.04,-16.39 -19.78,-28.13 -36.17,-36.17 -36.75,-18.03 -83.19,-2.96 -102.39,35.68 -3.49,7.03 -7.62,19.19 -7.62,29.29z"/>
   <path class="fil0" d="M59.06 159.5l23.62 0 0 17.72 -23.62 0 0 -17.72zm-11.81 -1.48l0 20.67c0,4.61 5.73,10.33 10.33,10.33l26.58 0c4.61,0 10.33,-5.73 10.33,-10.33l0 -20.67c0,-4.61 -5.73,-10.33 -10.33,-10.33l-26.58 0c-4.61,0 -10.33,5.73 -10.33,10.33z"/>
   <path class="fil0" d="M129.92 159.5l23.62 0 0 17.72 -23.62 0 0 -17.72zm-11.81 -1.48l0 20.67c0,4.61 5.72,10.33 10.33,10.33l26.57 0c4.61,0 10.33,-5.73 10.33,-10.33l0 -20.67c0,-4.61 -5.72,-10.33 -10.33,-10.33l-26.57 0c-4.61,0 -10.33,5.73 -10.33,10.33z"/>
   <path class="fil0" d="M200.79 159.5l23.62 0 0 17.72 -23.62 0 0 -17.72zm-11.81 -1.48l0 20.67c0,4.61 5.73,10.33 10.33,10.33l26.58 0c4.61,0 10.33,-5.73 10.33,-10.33l0 -20.67c0,-4.61 -5.73,-10.33 -10.33,-10.33l-26.58 0c-4.61,0 -10.33,5.73 -10.33,10.33z"/>
   <path class="fil0" d="M271.66 159.5l23.62 0 0 17.72 -23.62 0 0 -17.72zm-11.81 -1.48l0 20.67c0,4.61 5.73,10.33 10.33,10.33l26.58 0c4.61,0 10.33,-5.73 10.33,-10.33l0 -20.67c0,-4.61 -5.73,-10.33 -10.33,-10.33l-26.58 0c-4.61,0 -10.33,5.73 -10.33,10.33z"/>
   <path class="fil0" d="M59.06 212.65l23.62 0 0 17.72 -23.62 0 0 -17.72zm-11.81 -1.48l0 20.67c0,4.61 5.73,10.33 10.33,10.33l26.58 0c4.61,0 10.33,-5.73 10.33,-10.33l0 -20.67c0,-4.61 -5.73,-10.33 -10.33,-10.33l-26.58 0c-4.61,0 -10.33,5.73 -10.33,10.33z"/>
   <path class="fil0" d="M129.92 212.65l23.62 0 0 17.72 -23.62 0 0 -17.72zm-11.81 -1.48l0 20.67c0,4.61 5.72,10.33 10.33,10.33l26.57 0c4.61,0 10.33,-5.73 10.33,-10.33l0 -20.67c0,-4.61 -5.72,-10.33 -10.33,-10.33l-26.57 0c-4.61,0 -10.33,5.73 -10.33,10.33z"/>
   <path class="fil0" d="M59.06 265.8l23.62 0 0 17.72 -23.62 0 0 -17.72zm-11.81 -1.48l0 20.67c0,4.61 5.73,10.33 10.33,10.33l26.58 0c4.61,0 10.33,-5.72 10.33,-10.33l0 -20.67c0,-4.61 -5.73,-10.33 -10.33,-10.33l-26.58 0c-4.61,0 -10.33,5.72 -10.33,10.33z"/>
   <path class="fil0" d="M129.92 265.8l23.62 0 0 17.72 -23.62 0 0 -17.72zm-11.81 -1.48l0 20.67c0,4.61 5.72,10.33 10.33,10.33l26.57 0c4.61,0 10.33,-5.72 10.33,-10.33l0 -20.67c0,-4.61 -5.72,-10.33 -10.33,-10.33l-26.57 0c-4.61,0 -10.33,5.72 -10.33,10.33z"/>
   <path class="fil0" d="M265.75 298.28c-7.62,-5.1 -19.37,-22.15 -25.1,-22.15 -3.57,0 -5.91,2.34 -5.91,5.91 0,4.18 9.88,12.47 14.21,16.79 15.5,15.5 15.09,18.52 25.1,8.49l42.08 -42.08c2.17,-2.16 5.72,-4.5 5.72,-8.3 0,-3.57 -2.33,-5.91 -5.91,-5.91 -4.04,0 -9.37,6.78 -13.47,10.89l-36.73 36.36z"/>
   <path class="fil0" d="M188.98 211.17l0 20.67c0,9.99 17.72,15.11 17.72,4.43 0,-3.86 -2.27,-5.6 -5.91,-5.91l0 -17.72 23.62 0c7.92,0 7.92,-11.81 0,-11.81l-25.1 0c-4.61,0 -10.33,5.73 -10.33,10.33z"/>
  </g>
 </g>
</svg>
