<?xml version="1.0" encoding="UTF-8"?>
<!DOCTYPE svg PUBLIC "-//W3C//DTD SVG 1.1//EN" "http://www.w3.org/Graphics/SVG/1.1/DTD/svg11.dtd">
<!-- Creator: CorelDRAW 2021 (64-Bit) -->
<svg xmlns="http://www.w3.org/2000/svg" xml:space="preserve" width="1.22097in" height="1.2635in" version="1.1" style="shape-rendering:geometricPrecision; text-rendering:geometricPrecision; image-rendering:optimizeQuality; fill-rule:evenodd; clip-rule:evenodd"
viewBox="0 0 2585.85 2675.91"
 xmlns:xlink="http://www.w3.org/1999/xlink"
 xmlns:xodm="http://www.corel.com/coreldraw/odm/2003">
 <defs>
  <style type="text/css">
   <![CDATA[
    .fil0 {fill:black}
   ]]>
  </style>
 </defs>
 <g id="Layer_x0020_1">
  <metadata id="CorelCorpID_0Corel-Layer"/>
  <g id="_2710596103888">
   <path class="fil0" d="M1873.06 1965.12c-54.93,0 -119.15,-10.93 -164.32,-23.83 -28.33,-8.09 -45.88,-13.92 -70.2,-23.87 -54.04,-22.11 -51.49,-36.36 -109.65,-14.23 -10.52,4 -32.84,10.22 -42.58,14.9 0,-31.79 5.23,-38.12 5.23,-67.94 0,-35.93 -92.11,-89.26 -151.64,-203.77 -230.39,-443.15 120.33,-893.78 501.8,-893.78 158.97,0 266.81,25.1 389.74,117.21 55.81,41.82 106.33,94.6 145.55,152.36 40.06,59 74.24,142.93 88.05,215.08 45.98,240.25 -48.24,477.37 -247.06,618.11 -25.68,18.18 -64.64,41.08 -96.98,54.58 -78.94,32.95 -158.2,55.18 -247.95,55.18zm-1228.54 -1965.12l1187.13 0c94.11,0.17 172.32,59.55 213.75,130.78 13.42,23.09 23.54,53.03 29.48,85.5 6.47,35.34 2,390.39 2,457.93 34.79,8.1 74.93,25.04 106.36,39.97 84.49,40.17 111.29,69.96 172.19,120.48l71.72 74.63c45.84,60.62 76.01,106.85 107.42,185.25 124.35,310.47 16.84,650.77 -261.25,852.74 -35.55,25.81 -146.4,86.84 -196.44,91.01 0,93.04 10.52,372.56 -6.14,438.11 -27.52,108.26 -115.98,199.35 -239.17,199.51l-1187.21 0c-51.26,-0.18 -100.11,-27.76 -132.39,-50.04 -98.64,-68.11 -102.32,-163.3 -102.32,-263.54l0 -914.62c-56.06,-26.91 -74.53,-20.25 -158.9,-76.28 -224.43,-149.05 -311.18,-453.94 -206.95,-686.77 25.6,-57.17 49.33,-95.83 87.2,-142.76 59.58,-73.82 190.99,-173.98 278.65,-181.27 0,-129.74 -9.44,-169.09 45.9,-252.01 32.52,-48.74 110.5,-108.44 188.96,-108.61zm204.17 1285.69c0,18.02 3.86,20.24 5.22,36.58 -97.75,-51.72 -69.53,36.59 -313.59,36.59 -191.55,0 -382.92,-164.84 -421.16,-357.57 -25.29,-127.45 -5.58,-245.61 65.69,-353.31 148.72,-224.77 464.88,-270.84 665.08,-105.69 152.39,125.7 217.59,331.37 144.45,523.25 -23.24,60.95 -62.42,119.33 -107.81,163.96 -12.32,12.12 -37.88,35.36 -37.88,56.2zm-334.49 -945.98c0,-77.59 -4.51,-120.52 29.05,-169.55 27.2,-39.74 73.57,-65.64 138.19,-65.64l1123.67 0c110.36,0 167.25,70.32 167.25,177.69l0 365.85 -104.53 -5.22c-90.52,0 -186.12,21.21 -250.93,46.97 -206.55,82.07 -367.18,250.47 -430.79,473.37 -49.09,172.02 -26.14,364.76 42.32,500.59 32.53,64.53 69.11,126.6 120.66,177.24 32.36,31.78 38.6,18.85 26.01,112.22 -17.44,129.37 59.1,98.18 149.82,66.16 56.43,-19.92 34.2,-19.07 91.28,3.97 117.68,47.5 184.23,46.28 309.12,46.28 26.27,0 23.4,-4.7 47.04,-5.23l0 329.26c0,58.4 -13.88,98.76 -42.92,129.55 -27.38,29.04 -69.31,48.15 -124.33,48.15l-1123.67 0c-101.63,0 -167.24,-65.62 -167.24,-167.24l0 -935.53c243.26,0 255.27,-63.47 314.18,-42.68 51.26,18.09 87.07,40.25 120.79,12.52 31.74,-26.11 13.05,-86.46 9.27,-131.85 87.32,-58.47 172.47,-258.93 172.47,-386.75 0,-216.19 -77.29,-338.87 -207.7,-456.06 -15.88,-14.27 -24.37,-19.24 -42.12,-31.04 -102.97,-68.45 -202.34,-98.26 -340.77,-98.26 -8.23,0 -19.8,2.78 -26.12,5.23z"/>
   <path class="fil0" d="M650.08 2221.21c0,29.99 22.48,57.49 52.26,57.49l1081.86 0c71.3,0 58.88,-104.53 10.46,-104.53l-1102.77 0c-18.07,0 -41.81,28.37 -41.81,47.03z"/>
   <path class="fil0" d="M1679.68 1583.59c0,28.19 2.91,35.55 25.21,53.19 87.87,69.51 188.48,82.55 288.48,30.53 136.63,-71.07 50.3,-154.91 -2.88,-128.7 -51.25,25.26 -27.72,50.2 -138.34,50.2 -47.36,0 -65.57,-30.46 -94.26,-47 -36.1,-20.81 -78.21,2.41 -78.21,41.77z"/>
   <path class="fil0" d="M1643.09 1259.56c0,65.25 -15.6,146.33 57.49,146.33 62.03,0 52.26,-92.45 52.26,-125.43 0,-105.08 -109.75,-85.73 -109.75,-20.9z"/>
   <path class="fil0" d="M1993.27 1259.56c0,65.25 -15.61,146.33 57.49,146.33 60.36,0 52.26,-89.5 52.26,-125.43 0,-105.08 -109.75,-85.73 -109.75,-20.9z"/>
   <path class="fil0" d="M1214.54 2487.76c73.26,0 109.75,8.75 109.75,-67.95 0,-12.22 -13.35,-25.07 -21.65,-30.61 -20.75,-13.83 -133.35,-30.82 -143.66,37.66 -4.72,31.38 23.83,60.89 55.56,60.89z"/>
   <path class="fil0" d="M336.5 956.42c50.23,0 73.82,-53.26 45.88,-87.68 -46.88,-57.73 -126.85,14.85 -83.7,67.94 5.83,7.17 27.11,19.74 37.82,19.74z"/>
   <path class="fil0" d="M738.93 898.93c0,64.93 104.53,93.19 104.53,-10.45 0,-48.56 -104.53,-60.83 -104.53,10.45z"/>
   <path class="fil0" d="M514.2 898.93c0,79.85 104.53,72.18 104.53,0 0,-67.4 -104.53,-67.4 -104.53,0z"/>
  </g>
 </g>
</svg>
