<?xml version="1.0" encoding="UTF-8"?>
<!DOCTYPE svg PUBLIC "-//W3C//DTD SVG 1.1//EN" "http://www.w3.org/Graphics/SVG/1.1/DTD/svg11.dtd">
<!-- Creator: CorelDRAW 2021 (64-Bit) -->
<svg xmlns="http://www.w3.org/2000/svg" xml:space="preserve" width="1.27333in" height="1.27667in" version="1.1" style="shape-rendering:geometricPrecision; text-rendering:geometricPrecision; image-rendering:optimizeQuality; fill-rule:evenodd; clip-rule:evenodd"
viewBox="0 0 1252.76 1256.04"
 xmlns:xlink="http://www.w3.org/1999/xlink"
 xmlns:xodm="http://www.corel.com/coreldraw/odm/2003">
 <defs>
  <style type="text/css">
   <![CDATA[
    .fil0 {fill:black}
   ]]>
  </style>
 </defs>
 <g id="Layer_x0020_1">
  <metadata id="CorelCorpID_0Corel-Layer"/>
  <g id="_2710545422896">
   <path class="fil0" d="M1193.72 1203.57l-459.13 0 0 -209.88c0,-42.14 22.26,-80.28 45.75,-98.55 36.29,-28.22 52.26,-29.35 114.95,-29.35 4.81,20.65 26.03,40.6 45.91,45.92l-0 167.26c-0.11,55.11 -9.83,49.19 45.92,49.19 15.76,0 9.9,-30.91 9.85,-45.91l-0.01 -170.54c69.5,-36.78 8.15,-45.92 85.27,-45.92 38,0 72.77,25.36 90.88,46.85 22.78,27.02 30.46,59.09 30.46,107.29l0 173.81c0,7.56 -2.28,9.84 -9.84,9.84zm-249.24 -393.54c29.56,6.89 24.96,2.02 49.19,0 0,27.3 -0.42,49.68 -23.39,51.46 -29.69,2.31 -25.8,-23.79 -25.8,-51.46zm22.95 -52.47c-36.87,0 -61.72,-17.91 -79.56,-38.5 -22.68,-26.16 -22.1,-49.08 -22.1,-95.96 32.3,-0.72 42.36,-24.91 59.03,-36.07 35.99,24.1 89.52,41.34 147.58,42.63 0,73.91 -33.98,127.9 -104.95,127.9zm-101.66 -190.21c0,-53.46 -4.01,-72.47 19.58,-105.05 56.91,-78.62 187.03,-43.19 187.03,68.97l0 42.63c-46.89,0 -115.02,-16.52 -128.28,-48.81 -5.35,-13.03 -3.05,-20.39 -16.74,-26.26 -11.93,-5.11 -23.98,-1.78 -31.46,6.72 -16.3,18.55 3.95,38.97 -30.13,61.79zm-55.75 -52.47l0 147.58c0,80.87 78.7,126.58 78.7,134.46l0 13.12 -36.07 0c-92.54,0 -173.81,89.61 -173.81,186.93l0 226.28c0,19.56 6.69,32.8 26.23,32.8l524.71 0c11.05,0 22.96,-5.79 22.96,-16.4l0 -278.76c0,-64.47 -83.96,-150.86 -173.81,-150.86l-29.52 0c0,-44.26 18.92,-15.49 54.01,-73.89 31.66,-52.69 24.7,-124.67 24.7,-188.46 0,-101.27 -60.23,-183.65 -157.42,-183.65 -83.19,0 -160.69,69.7 -160.69,150.86z"/>
   <path class="fil0" d="M205.8 94.3l0.81 112.31 -111.5 0 110.69 -112.31zm-205.8 135.27l0 905.14c0,65.11 61.39,121.34 127.9,121.34l501.76 0 0 -52.47 -478.8 0c-68.2,0 -98.38,-30.19 -98.38,-98.38l0 -842.83 183.65 0c15.86,0 26.23,-10.37 26.23,-26.23l0 -183.65 580.46 0c62.44,0 98.38,26.43 98.38,88.55l0 173.81c37.32,0 55.75,5.29 55.75,-9.84l0 -147.58c0,-87.33 -43.66,-157.42 -127.9,-157.42l-639.5 0c-10.98,0 -229.56,218.42 -229.56,229.56z"/>
   <path class="fil0" d="M236.12 770.68l0 -321.39c0,-13.53 11.02,-29.52 22.95,-29.52l314.83 0c15.86,0 26.23,10.37 26.23,26.23l0 331.23c0,26.36 -61.72,48.44 -84.5,59.79 -15.36,7.65 -89.67,47.27 -98.18,46.44 -5.23,-0.51 -86.15,-42.23 -98.26,-48.29 -51.75,-25.87 -83.07,-31.04 -83.07,-64.5zm-55.75 -304.99l0 291.87c0,91.87 58.36,98.74 161.08,150.48 96.83,48.77 54.61,49.93 210.59,-28.05 46.92,-23.46 103.85,-38.56 103.85,-106.03l0 -318.11c0,-55.91 -33.33,-91.83 -88.54,-91.83l-298.43 0c-59.64,0 -88.55,40.81 -88.55,101.67z"/>
   <path class="fil0" d="M368.09 666.53l-35 -32.27 -38.72 37.25c7.77,11.22 50.21,54.99 60.36,59.63 24.24,11.08 54.7,-28.79 68.04,-42.74 27.08,-28.33 100.47,-94.35 118.35,-121.05l-35.29 -36.86 -137.73 136.03z"/>
   <path class="fil0" d="M101.67 1029.76c0,100.66 23.96,124.62 124.62,124.62 15.13,0 9.84,-18.43 9.84,-55.75 -83.56,0 -78.71,4.85 -78.71,-78.71 -37.32,0 -55.75,-5.29 -55.75,9.84z"/>
   <path class="fil0" d="M285.31 1151.1c11.8,2.75 55.75,11.42 55.75,-6.56l0 -45.91 -55.75 0 0 52.47z"/>
  </g>
 </g>
</svg>
