<?xml version="1.0" encoding="UTF-8"?>
<!DOCTYPE svg PUBLIC "-//W3C//DTD SVG 1.1//EN" "http://www.w3.org/Graphics/SVG/1.1/DTD/svg11.dtd">
<!-- Creator: CorelDRAW 2021 (64-Bit) -->
<svg xmlns="http://www.w3.org/2000/svg" xml:space="preserve" width="0.965031in" height="1.22439in" version="1.1" style="shape-rendering:geometricPrecision; text-rendering:geometricPrecision; image-rendering:optimizeQuality; fill-rule:evenodd; clip-rule:evenodd"
viewBox="0 0 343.11 435.32"
 xmlns:xlink="http://www.w3.org/1999/xlink"
 xmlns:xodm="http://www.corel.com/coreldraw/odm/2003">
 <defs>
  <style type="text/css">
   <![CDATA[
    .fil0 {fill:black}
   ]]>
  </style>
 </defs>
 <g id="Layer_x0020_1">
  <metadata id="CorelCorpID_0Corel-Layer"/>
  <g id="_2710538142848">
   <path class="fil0" d="M0.28 80.09l0 286.03c0,0.82 0.05,1.66 -0.04,2.47 -0.17,1.49 -0.23,2.14 -0.24,2.48l0 0.09c0.01,0.51 0.19,0.2 0.28,1.94 0.05,0.87 0,1.91 -0,2.79 -0.03,11.34 4.68,22.09 10.6,30.97 3.45,5.18 5.29,6.8 9.7,11.23 9.19,9.24 21.09,14.81 35.59,16.6 9.32,1.15 29.59,0.36 40.94,0.36l159.62 0c6.85,0 12.37,0.2 17.22,0.28l6.39 0c8.15,-0.19 15.06,-1.32 25.06,-5.46 8.82,-3.66 18.02,-12.1 23.76,-19.77 1.77,-2.37 4.97,-7.1 6.36,-9.83 2.19,-4.32 3.33,-6.61 4.96,-11.5 2.19,-6.55 5.08,-19.89 -1.07,-26.07 -4.98,-5.01 -18.52,-5.57 -19.89,7.34 -0.62,5.81 -2.16,12.21 -4.1,16.83 -6.96,16.52 -19.44,24.77 -38.03,24.75 -3.51,-0 -6.33,0.28 -10.04,0.28l-169.66 -0.28c-4.53,0 -12.56,-0.45 -16.58,0.16 -4.27,0.65 -18.64,0.13 -24.04,-0.84 -6.43,-1.15 -12.68,-3.98 -17.58,-7.81 -10.26,-8.03 -15.83,-20.82 -15.75,-34.48 0.03,-5.78 -0.27,-10.82 -0.27,-16.75l0 -269.84c0,-5.83 0.31,-10.8 0.28,-16.47 -0.07,-13.22 6.42,-26.53 16.7,-34.09 3.37,-2.48 6.66,-4.17 11.1,-5.65 5.18,-1.73 9.35,-1.77 14.66,-2.36 3.14,-0.35 14.11,-0.2 16.78,0.16 4.1,0.56 12.39,0.08 16.95,0.08l171.35 -0.29c3.49,0.11 10.18,0.43 13.58,0.93 1.34,0.2 2.74,0.49 4.2,0.83 7.4,1.73 13.22,5.7 18.42,10.88 7.04,7.02 11.44,17.53 11.52,27.55l0.27 19.26c0,56.93 0.23,114.18 -0.01,171.06 -0.01,1.95 0.3,2.71 0.29,4.73l-0.28 25.4c0,10.52 11.7,15.13 19.63,8.74 4.92,-3.96 4.31,-12.7 3.83,-18.52 -0.28,-3.34 -0.01,-7.95 -0.01,-11.43l0 -199.8c0.03,-14.29 -4.37,-27.27 -13.35,-38.27 -8.94,-10.95 -20.39,-19.33 -34.36,-22.84 -9.97,-2.51 -21.61,-1.67 -32.37,-1.67l-183.06 0c-5.08,0 -9.53,-0.24 -13.92,-0.28l-2.05 0c-5.06,0.04 -10.15,0.46 -16.13,1.95 -21.28,5.3 -40.43,25.39 -45.6,45.93 -0.86,3.42 -1,6.41 -1.48,9.96 -0.24,1.8 -0.01,3.69 -0.07,5.52 -0.04,1.32 -0.22,1.28 -0.29,2.47l0 3.01c0.08,1.98 0.29,3.86 0.29,5.38 0,1.96 -0.01,3.91 -0.01,5.87z"/>
   <path class="fil0" d="M101.85 234.68c0,3.73 0.92,6.11 3.06,8.93 1.84,2.43 3.97,3.62 7.82,3.62 8.84,0 11.77,-6.06 16.67,-10.95 2.6,-2.6 7.58,-7.32 9.52,-9.74l2.75 -2.83c0.56,-0.67 0.61,-0.87 1.26,-1.53 4.39,-4.44 6.48,-6.51 12.1,-10.22 1.47,-0.97 5.42,-4.03 6.81,-4.35 0,4.69 0.28,8.4 0.28,13.12l0 99.9c0,5.97 -0.28,11.33 -0.28,17.02 0,6.32 -0.51,29.12 0.44,33.6 2.16,10.16 14.71,12.79 20.41,5.11 2.9,-3.91 2.87,-7.88 2.87,-14.44 0,-2.88 0,-5.77 0,-8.65 0,-3.17 -0.28,-5.27 -0.28,-8.37 0.03,-46.04 0,-92.09 0,-138.13 0.65,0.34 1.01,0.43 1.76,0.75 0.81,0.35 1.04,0.6 1.78,1.01 2.4,1.35 4.6,2.3 7.18,3.98 6.17,4.02 9.91,8.89 14.47,13.44l8.09 8.65c3.73,3.69 10.48,11.79 16.12,11.79 4.06,0 6.2,-0.44 8.86,-3.14 3.82,-3.87 3.7,-4.46 3.7,-9.7 0,-5.32 -4.48,-8.85 -7.88,-12.21 -0.83,-0.82 -1.39,-1.09 -2.24,-1.94l-12.27 -12.56c-8.26,-8.25 -15.41,-17.3 -25.72,-23.39 -15.49,-9.16 -34.81,-9.33 -50.51,0.88 -8.23,5.36 -10.49,9.47 -16.7,15.67 -2.77,2.76 -5.32,5.33 -8.09,8.09 -1.45,1.45 -2.45,2.73 -3.91,4.19l-12.42 11.85c-2.59,2.59 -5.65,6.63 -5.65,10.54z"/>
   <path class="fil0" d="M159.62 75.34l0 7.81c-1.95,0 -2.72,-0.28 -4.74,-0.28 -7.12,0 -18.89,-0.91 -23.77,2.46 -1.46,1.01 -2.4,2.1 -3.37,3.61 -2.94,4.62 -1.39,11.42 2.25,14.34 2.43,1.95 5.24,3.3 9.54,3.3l20.09 0 0 18.98c0,20.58 23.44,17.15 23.44,2.79l0 -21.77c7.06,0 20.59,0.7 25.43,-0.8 3.44,-1.06 6.19,-3.59 7.42,-6.81 3.25,-8.5 -3.31,-15.83 -11.09,-15.83l-21.77 0c0,-1.95 0.28,-2.72 0.28,-4.74l0 -14.23c0,-5.61 -1.57,-10.38 -5.97,-13.01 -6.08,-3.63 -14.89,-0.94 -16.98,6.8 -0.8,2.96 -0.22,5.01 -0.51,8.42 -0.23,2.8 -0.26,5.75 -0.26,8.94z"/>
  </g>
 </g>
</svg>
