<?xml version="1.0" encoding="UTF-8"?>
<!DOCTYPE svg PUBLIC "-//W3C//DTD SVG 1.1//EN" "http://www.w3.org/Graphics/SVG/1.1/DTD/svg11.dtd">
<!-- Creator: CorelDRAW 2021 (64-Bit) -->
<svg xmlns="http://www.w3.org/2000/svg" xml:space="preserve" width="1.0826in" height="1.36833in" version="1.1" style="shape-rendering:geometricPrecision; text-rendering:geometricPrecision; image-rendering:optimizeQuality; fill-rule:evenodd; clip-rule:evenodd"
viewBox="0 0 551.62 697.22"
 xmlns:xlink="http://www.w3.org/1999/xlink"
 xmlns:xodm="http://www.corel.com/coreldraw/odm/2003">
 <defs>
  <style type="text/css">
   <![CDATA[
    .fil0 {fill:black}
   ]]>
  </style>
 </defs>
 <g id="Layer_x0020_1">
  <metadata id="CorelCorpID_0Corel-Layer"/>
  <g id="_2710596011008">
   <path class="fil0" d="M86.3 551.06c0,-25.29 30.05,-31.66 43.53,-18.48 13.88,13.58 5.72,43.53 -17.08,43.53 -14.19,0 -26.45,-11.34 -26.45,-25.06zm360.51 -58.46c-13.63,0 -22.11,1.79 -30.4,7.18 -18.98,12.34 -23.63,25.11 -28.17,46.99 -5.36,25.79 -17.73,43.26 19.6,43.26 5.92,0 9.74,-4.33 9.74,-9.74 0,-8.95 -8.65,-8.61 -13.92,-11.14 2.4,-10.28 5.89,-29.37 9.71,-37.61 15.01,-32.32 66.84,-23.07 66.84,15.34 0,12.52 -6.68,25.13 -6.96,37.58 -6.8,0 -9.61,-2.62 -14.72,0.5 -8.05,4.9 -8.29,21.77 23.08,21.77 9.12,0 10.1,-16.71 12.26,-25.32 6.49,-25.89 11.07,-44.34 -4.71,-67.13 -5.54,-8.01 -13.03,-13.04 -21.47,-17.5 0.11,-5.11 3.94,-23.06 5.57,-26.45 16.84,11.28 25.7,16.03 38.99,34.78 8.78,12.39 18.08,35.81 18.08,57.08l0 97.44c0,8.99 -5.21,16.7 -13.92,16.7l-483.01 0c-8.71,0 -13.92,-7.72 -13.92,-16.7l0 -87.69c0,-41.49 25.8,-75.24 59.85,-93.26 0.19,8.41 6.18,25.44 6.96,34.8 -23,15.4 -26.57,49.41 -6.67,69.31 27.5,27.5 77.66,8.48 77.66,-30.33 0,-30.64 -21.65,-47.33 -51.5,-47.33 -3.93,-8.18 -4.43,-25.23 -8.35,-33.41 15.16,-3.53 31.47,-8.52 46.46,-13.4 8.23,-2.68 15.31,-4.49 23.74,-6.88 7.56,-2.14 16.7,-6 24.45,-6.17 0.89,3.33 6.41,11.6 8.62,15.05l28.32 44.06c13.48,19.81 34.93,-22.46 50.75,-34.05 2.22,1.63 8.43,9.14 11.48,12.18 14.65,14.58 27.42,38.1 39.26,21.86 3.61,-4.95 5.93,-9.8 9.1,-14.57l29.24 -45.92c3.18,1.52 15.21,3.76 20.3,4.76 13.17,2.58 55.61,13.34 64.61,13.34 -0.41,4.92 -5.37,27.3 -6.96,30.62zm-125.27 -9.74c-5.99,-1.6 -23.9,-22.64 -26.45,-26.45 4.79,-1.28 44.39,-28.65 51.5,-33.41 2.36,4.46 3.12,4.7 5.57,8.35 -1.29,5.53 -4.39,8.42 -6.89,12.59l-16.19 25.56c-3.08,4.69 -6.25,7.82 -7.53,13.35zm-114.14 -51.5c2.45,-3.66 3.21,-3.9 5.57,-8.35 7.37,4.93 46.78,32.15 51.5,33.41 -4.32,6.46 -20.41,24.83 -26.45,26.45 -1.7,-7.3 -23.58,-35.75 -30.62,-51.5zm16.7 -41.76c5.13,2.71 6.66,4.76 11.69,7.8 31.2,18.81 57.6,18.59 87.95,-0.02 5.03,-3.09 6.65,-5.1 11.71,-7.78 0.09,3.85 1.56,12.75 2.78,15.31 -10.12,5.36 -55.1,37.58 -58.46,37.58 -3.34,0 -48.36,-32.24 -58.46,-37.58 1.23,-2.56 2.7,-11.46 2.78,-15.31zm179.56 -121.1c0,-4.46 -0.57,-15.7 0.1,-19.39 0.9,-4.96 5.37,-7.91 8.25,-11.24 2.69,11.57 2.5,23.36 -8.35,30.62zm-257.51 -19.49c0,-12.54 -0.54,-5.85 1.39,-9.74 2.71,1.81 7.22,7.27 7.99,10.11 0.9,3.33 0.36,14.91 0.36,19.12 -5.76,-3.86 -9.74,-10.01 -9.74,-19.49zm136.41 141.98c-25.58,0 -40.09,-11.97 -57.2,-27.71l-12.08 -11.58c-4.59,-4.64 -6.84,-8.37 -11.8,-13.25 -4.71,-4.64 -8.79,-8.88 -12.12,-14.32 -5.84,-9.54 -12.59,-23.76 -12.59,-38.92l0 -91.87c0,-7.23 2.13,-13.74 4.61,-19.05 7.47,-15.99 25.12,-31.06 44.1,-31.06 32.02,0 24.42,5.29 56.46,17.31 45.34,17.01 68.1,-0.75 92.31,31.57 12.18,16.26 10.62,26.92 8.59,51.41 -3.78,45.61 9.63,59.06 -26.9,96.99 -5.3,5.5 -5.35,7.28 -14.57,16.06 -15.26,14.54 -36.81,34.43 -58.83,34.43zm125.28 -282.57c0,7.97 15.31,12.78 15.31,29.23l0 15.31c0,16.75 -11.25,55.21 -19.49,61.25 0,-16.46 -11.39,-33.01 -21.9,-43.52 -31.1,-31.1 -58.78,-12.93 -100.59,-31.65 -14.59,-6.53 -28.78,-16.7 -50.11,-16.7 -23.34,0 -47.17,13.27 -57.1,26.42 -15.27,20.21 -18.07,30.62 -18.07,65.45 -7.65,-5.12 -18.17,-32.87 -18.95,-43.67 -0.73,-10.15 9.25,-11.61 -0.54,-30.1 10.55,-7.07 9.82,-13.95 5.7,-23.93 -2.52,-6.09 -1.24,-2.66 0.57,-10.08 4.33,-17.64 8.33,-43.94 36.87,-43.94 20.51,0 17.45,12.46 28.74,-11.62 24.94,-53.18 114,-24.8 151.27,-4.14 33.19,18.4 25.63,34.24 42.91,43.39 13.8,7.3 5.35,10.47 5.35,18.31zm-221.32 -65.42c-8.51,0 -16.19,-2.1 -28.35,3.66 -9.52,4.51 -13.75,8.55 -19.96,16.23 -12.92,16 -11.78,32.39 -17.44,43.81 -2.92,5.88 -5.12,11.52 3.11,17.03 -14.76,22.05 -6.97,24.38 -2.78,30.62 -5.09,7.32 -4.17,4.82 -4.17,13.92 0,10.76 3.04,20.26 6.35,28.45l9.44 19.79c1.67,2.79 0.7,1.41 2.31,3.26 -21.13,31.56 -1.58,69 22.27,70.99 0,43.29 48.72,78.4 48.72,82.13 0,12.08 -2.75,30.92 -9.33,39.39 -13.91,17.93 -6.37,10.95 -31.21,18.9 -32.63,10.44 -83.12,19.97 -109.53,38.01 -10.75,7.34 -18.35,14.53 -26.4,23.71 -15.27,17.42 -29.54,46.85 -29.54,70.68l0 101.61c0,7.53 3.09,13.03 7.23,17.83 0.54,0.62 1.28,1.47 1.96,2.21 2.07,2.23 0.39,0.65 2.77,2.8 6.72,6.05 14.89,9.18 27.02,9.18l471.87 0c27.71,0 40.37,-17.93 40.37,-44.54 0,-33.92 2.54,-90.18 -4.99,-120.29 -8.97,-35.91 -35.39,-66.23 -68.3,-82.03 -21.56,-10.35 -73.63,-17.74 -100.5,-24.77 -8.11,-2.12 -8.6,-5.5 -13.33,-11.73 -6.46,-8.49 -5.53,-6.1 -7.37,-17.69 -6.4,-40.5 -3.22,-15.16 27.88,-57.65 7.54,-10.3 17.67,-30.69 17.67,-47.75 14.74,-1.23 24.55,-14.26 28.78,-26.9 2.66,-7.95 2.86,-15.56 1.85,-23.12 -1.36,-10.15 -3.77,-14.12 -8.36,-20.97 12.07,-22.82 32.41,-81.24 9.28,-109.5 -10.78,-13.17 6.86,-17.77 -21.74,-38.11 -7.4,-5.26 -4.69,-13.66 -28.33,-32.91 -12.79,-10.42 -36.45,-22.05 -52.74,-26.6 -36.19,-10.12 -80.04,-22.5 -115,-0.02 -6.72,4.32 -10.65,7.4 -15.92,13.31 -2.4,2.69 -4.41,5.85 -6.33,8.98 -2.21,3.6 -3.05,8.07 -7.24,8.07z"/>
   <path class="fil0" d="M91.87 551.06c0,24.81 37.75,26.03 39.5,0.83 1.87,-26.97 -39.5,-27.19 -39.5,-0.83z"/>
  </g>
 </g>
</svg>
