<?xml version="1.0" encoding="UTF-8"?>
<!DOCTYPE svg PUBLIC "-//W3C//DTD SVG 1.1//EN" "http://www.w3.org/Graphics/SVG/1.1/DTD/svg11.dtd">
<!-- Creator: CorelDRAW 2021 (64-Bit) -->
<svg xmlns="http://www.w3.org/2000/svg" xml:space="preserve" width="5.02054in" height="2.86328in" version="1.1" style="shape-rendering:geometricPrecision; text-rendering:geometricPrecision; image-rendering:optimizeQuality; fill-rule:evenodd; clip-rule:evenodd"
viewBox="0 0 7063.34 4028.31"
 xmlns:xlink="http://www.w3.org/1999/xlink"
 xmlns:xodm="http://www.corel.com/coreldraw/odm/2003">
 <defs>
  <style type="text/css">
   <![CDATA[
    .fil0 {fill:black}
   ]]>
  </style>
 </defs>
 <g id="Layer_x0020_1">
  <metadata id="CorelCorpID_0Corel-Layer"/>
  <path class="fil0" d="M-0 469.05c0,281.55 135.22,376.64 341.44,582.86 340.77,340.76 2720.73,2741.35 2853.11,2844.47 135.58,105.61 173.4,131.93 364.71,131.93 224.28,0 387.61,-201.37 527.68,-341.44l1317.48 -1317.48c124,-124 1446.74,-1432.6 1526.99,-1535.63 105.61,-135.58 131.93,-173.4 131.93,-364.71 0,-242.31 -226.75,-469.05 -469.05,-469.05 -247.16,0 -347.06,105.63 -513.89,272.47 -250.01,250.01 -2468.85,2488.34 -2548.74,2541.83 -77.22,-51.71 -2293.45,-2286.55 -2541.83,-2534.94 -174.18,-174.17 -268.87,-279.36 -520.79,-279.36 -242.3,0 -469.05,226.75 -469.05,469.05z"/>
 </g>
</svg>
