<?xml version="1.0" encoding="UTF-8"?>
<!DOCTYPE svg PUBLIC "-//W3C//DTD SVG 1.1//EN" "http://www.w3.org/Graphics/SVG/1.1/DTD/svg11.dtd">
<!-- Creator: CorelDRAW 2021 (64-Bit) -->
<svg xmlns="http://www.w3.org/2000/svg" xml:space="preserve" width="5.68938in" height="5.00402in" version="1.1" style="shape-rendering:geometricPrecision; text-rendering:geometricPrecision; image-rendering:optimizeQuality; fill-rule:evenodd; clip-rule:evenodd"
viewBox="0 0 5724.79 5035.16"
 xmlns:xlink="http://www.w3.org/1999/xlink"
 xmlns:xodm="http://www.corel.com/coreldraw/odm/2003">
 <defs>
  <style type="text/css">
   <![CDATA[
    .fil0 {fill:black}
   ]]>
  </style>
 </defs>
 <g id="Layer_x0020_1">
  <metadata id="CorelCorpID_0Corel-Layer"/>
  <g id="_1390506429584">
   <path class="fil0" d="M-0 2776.55l0 1453.56c0,233.92 235.69,469.61 469.61,469.61l201.26 0 0 -1677.18 -201.26 0c-64.09,0 -79.97,17.85 -134.18,22.36 0,-710.29 138.82,-1224.93 543.04,-1737.93 25.67,-32.58 48.09,-64.59 74.58,-93.14 125.48,-135.23 187.77,-200.34 331.11,-317.39l291.71 -200.26c564.86,-338.56 1218.45,-431.39 1863.6,-285.72 219.83,49.63 298.44,91.04 489.87,169.82 165.06,67.93 449.5,257.8 590.57,382.2 34.23,30.19 50.26,53.15 86.74,80.98 55.62,42.43 188.03,197.37 234.81,257.17 408.71,522.47 547.88,1025.04 547.88,1744.27 -54.21,-4.51 -70.09,-22.36 -134.18,-22.36l-201.26 0 0 1677.18 201.26 0c233.92,0 469.61,-235.7 469.61,-469.61l0 -1453.56c0,-556.65 -226.4,-1156.17 -519.03,-1560.67 -144.02,-199.08 -309.56,-386.12 -500.03,-539.83 -740.69,-597.75 -1590.55,-811.71 -2533.75,-591.35 -224.47,52.44 -317.53,100.3 -512.43,180.8 -116.2,47.99 -338.02,179.2 -439.09,254.14l-195.24 151.39c-38.38,32.25 -53.06,45.95 -88.65,79.06 -191.56,178.22 -227.2,207.8 -412.78,459.35 -292.66,396.69 -523.77,1014.14 -523.77,1567.12z"/>
   <path class="fil0" d="M4047.6 2832.46l0 2057.35c0,68.56 76.79,145.36 145.36,145.36l223.63 0c142.41,0 301.89,-159.48 301.89,-301.89l0 -1744.27c0,-142.41 -159.48,-301.89 -301.89,-301.89l-223.63 0c-68.56,0 -145.36,76.79 -145.36,145.36z"/>
   <path class="fil0" d="M1006.31 2988.99l0 1744.27c0,142.41 159.48,301.89 301.89,301.89l223.63 0c68.56,0 145.36,-76.79 145.36,-145.36l0 -2057.35c0,-68.56 -76.79,-145.36 -145.36,-145.36l-223.63 0c-142.41,0 -301.89,159.48 -301.89,301.89z"/>
  </g>
 </g>
</svg>
