<?xml version="1.0" encoding="UTF-8"?>
<!DOCTYPE svg PUBLIC "-//W3C//DTD SVG 1.1//EN" "http://www.w3.org/Graphics/SVG/1.1/DTD/svg11.dtd">
<!-- Creator: CorelDRAW 2021 (64-Bit) -->
<svg xmlns="http://www.w3.org/2000/svg" xml:space="preserve" width="6.80535in" height="6.51369in" version="1.1" style="shape-rendering:geometricPrecision; text-rendering:geometricPrecision; image-rendering:optimizeQuality; fill-rule:evenodd; clip-rule:evenodd"
viewBox="0 0 8298.92 7943.24"
 xmlns:xlink="http://www.w3.org/1999/xlink"
 xmlns:xodm="http://www.corel.com/coreldraw/odm/2003">
 <defs>
  <style type="text/css">
   <![CDATA[
    .fil0 {fill:black}
   ]]>
  </style>
 </defs>
 <g id="Layer_x0020_1">
  <metadata id="CorelCorpID_0Corel-Layer"/>
  <g id="_1390516645248">
   <path class="fil0" d="M615.94 2609.62c0,271.26 279.94,343.25 438.79,228.08 85.72,-62.14 175.5,-341.3 269.2,-508.83 96.35,-172.24 194.26,-315.84 308.47,-469.55 158.6,-213.43 376.79,-416.45 583.11,-583.92 1046.14,-849.21 2650.22,-965.96 3807.39,-279.89 440.36,261.09 904.19,660.89 1168.83,1100.41 407.3,676.42 556.08,1119.14 556.08,2004.91 0,655.45 -242.43,1230.51 -544.14,1725.1 -125.34,205.47 -297.48,405.1 -464.86,572.5 -310.5,310.54 -588.26,486.63 -973.68,679.61 -880.23,440.74 -2082.16,404.36 -2955.76,-32.46l-368.38 -215.14c-81.41,-54.18 -151.26,-103.11 -225.52,-163.49 -75.45,-61.34 -142.48,-111.3 -209.7,-179.31 -339.69,-343.68 -618.85,-672.38 -808.65,-1136.41 -34.14,-83.47 -71.98,-195.58 -142.39,-246.63 -158.86,-115.16 -438.79,-43.18 -438.79,228.08 0,110.53 177.91,461.76 230.02,548 72.59,120.14 139.91,252.5 221.35,362.17 218.67,294.45 460.1,578.01 745.56,810.49 127.75,104.04 441.39,321.64 580.39,392.13 221.04,112.1 278.36,146.42 533.64,244.39 1193.96,458.2 2642.85,287.86 3660.72,-453.91l409.81 -319.59c154.04,-128.8 444.54,-472.87 562.76,-636.7 146.25,-202.69 243.76,-380.28 360.55,-611.97 184.66,-366.33 378.17,-1008.43 378.17,-1550.67l0 -22.44c-0.01,-466.51 -1.44,-631.49 -119.96,-1105.68 -56.62,-226.54 -149.5,-498.98 -252.78,-703.54 -150.74,-298.53 -338.66,-627.32 -563.58,-879.01 -732.53,-819.7 -1748.43,-1406.37 -2937.58,-1406.37 -705.58,0 -1192.84,97.45 -1772.3,367.27l-129.66 64.85c-484.82,261.25 -426.08,247 -814.29,547.25 -194.92,150.75 -581,606.43 -719.29,836.75 -49.55,82.52 -92.36,160.86 -143.51,245.5 -52.12,86.24 -230.02,437.47 -230.02,548z"/>
   <path class="fil0" d="M4830.23 3695.61l-4441.27 -0.05c-131.12,-0.52 -194.54,-1.74 -275.79,48.39 -50.89,31.4 -101.21,115.04 -113.17,205.29l0 77.76c16.67,115.91 114.27,221.3 372.69,219.82l4457.54 -0.11c-91.86,137.17 -973.26,937.11 -1021.94,1053 -35.75,85.11 -29.68,184.85 16.59,260.29 54.01,88.07 138.71,129.29 259.74,129.29 104.43,0 197.43,-108.24 255.29,-166.14l1280.5 -1280.49c208.74,-208.58 227.67,-315.71 8.1,-534.9l-1288.6 -1288.6c-86.97,-87.03 -137.01,-166.14 -287.71,-166.14 -173.86,0 -321.26,177.95 -248.53,377.77 48.62,133.58 919.74,905.3 1026.55,1064.81z"/>
  </g>
 </g>
</svg>
