<?xml version="1.0" encoding="UTF-8"?>
<!DOCTYPE svg PUBLIC "-//W3C//DTD SVG 1.1//EN" "http://www.w3.org/Graphics/SVG/1.1/DTD/svg11.dtd">
<!-- Creator: CorelDRAW 2021 (64-Bit) -->
<svg xmlns="http://www.w3.org/2000/svg" xml:space="preserve" width="0.59002in" height="0.567059in" version="1.1" style="shape-rendering:geometricPrecision; text-rendering:geometricPrecision; image-rendering:optimizeQuality; fill-rule:evenodd; clip-rule:evenodd"
viewBox="0 0 119.87 115.2"
 xmlns:xlink="http://www.w3.org/1999/xlink"
 xmlns:xodm="http://www.corel.com/coreldraw/odm/2003">
 <defs>
  <style type="text/css">
   <![CDATA[
    .fil0 {fill:#FFCC00}
   ]]>
  </style>
 </defs>
 <g id="Layer_x0020_1">
  <metadata id="CorelCorpID_0Corel-Layer"/>
  <path class="fil0" d="M54.3 1.35c-0.35,0.48 -0.95,0.73 -1.38,1.07 -1.94,1.53 -2.62,3.25 -3.15,3.68 -0.03,0.5 -2.48,5.47 -2.76,5.74 -0.24,0.82 -2.09,4.45 -2.73,5.78l-0.51 0.75c-0.03,0.53 -2.3,5.15 -2.61,5.46 -0.23,0.87 -2.25,4.88 -2.76,5.6 -1.29,1.82 -2.47,2.48 -5.45,2.78 -0.45,0.13 -1.33,0.25 -1.91,0.19 -0.49,0.36 -12.01,1.89 -13.6,2.04 -0.64,0.15 -1.46,0.29 -2.15,0.21 -0.55,0.42 -2.98,0.57 -3.85,0.65 -0.54,0.1 -1.06,0.23 -1.61,0.12 -0.18,0.12 0.13,-0.01 -0.35,0.17 -0.22,0.08 -0.05,0.02 -0.25,0.07l-1.43 0.36c-0.65,0.22 -1.07,0.39 -1.68,0.72 -1.96,1.04 -3.93,2.98 -4.9,4.99 -1,2.06 -0.71,2.29 -1.11,3.42l-0.11 0.23 0.11 0.16c-0.11,1.75 0.01,3.24 0.48,4.81 0.5,1.68 1.23,2.39 1.73,3.62l0.35 0.3c3.91,4.11 9.76,9.69 13.87,13.57 2.64,2.49 7.81,6.33 6.3,9.9l-2.17 12.2 -0.53 2.83c-0.2,2.26 -0.89,5.18 -1.31,7.52 -0.24,1.34 -0.44,2.53 -0.36,3.98 0.09,1.61 0.51,2.37 0.78,3.69l1.41 2.59c0.25,0.17 0.1,0.01 0.29,0.23 0.15,0.17 0.15,0.19 0.28,0.43 0.22,0.09 2.95,3.03 5.89,3.46 1.02,0.33 1.94,0.46 3.05,0.5l1.72 -0.04c0.39,-0.32 1.39,-0.44 1.91,-0.64 0.59,-0.23 1.23,-0.56 1.72,-0.83 0.88,-0.48 2.74,-1.56 3.57,-1.79 0.37,-0.34 5.2,-2.91 5.7,-2.92 0.18,-0.2 0.02,-0.07 0.29,-0.26 0.78,-0.57 5.63,-2.97 6.03,-3.09 0.48,-0.55 2,-1.13 2.74,-1.51 0.84,-0.43 2.13,-1.33 2.92,-1.4 0.41,-0.52 1.3,-0.82 2.04,-0.98 0.7,-0.16 1.97,-0.25 2.53,0.22 0.56,-0 1.31,0.37 1.58,0.68 0.96,0.28 2.32,1.11 3.3,1.6 0.52,0.26 1.06,0.58 1.57,0.84 0.3,0.15 0.53,0.25 0.8,0.39l0.75 0.53c0.48,0.03 5.32,2.56 5.69,2.86 0.86,0.28 2.26,1.12 3.15,1.58 0.8,0.41 2.56,1.12 3.09,1.74 0.82,0.08 1.96,0.89 2.83,1.34 0.52,0.27 0.86,0.46 1.38,0.72 0.44,0.23 1.15,0.45 1.52,0.63 1.25,0.22 1.82,0.36 3.16,0.35l2.67 -0.37c0.2,-0.16 -0.1,0.01 0.31,-0.19 0.17,-0.09 0.14,-0.07 0.33,-0.14 2.53,-1.01 4.38,-2.04 6,-4.49 0.4,-0.61 0.92,-2.04 1.4,-2.52 0.01,-0.96 0.52,-2.14 0.55,-3.49 0.03,-1.37 -0.17,-2.37 -0.4,-3.67 -0.22,-1.22 -1.29,-6.14 -1.09,-6.9l-0.77 -3.68c-0.58,-2.07 -0.95,-5.23 -1.36,-7.46 -0.24,-1.31 -0.48,-2.56 -0.69,-3.8 -0.33,-2 -0.14,-2.18 0.16,-3.99 0.56,-1.34 1.32,-2.38 2.28,-2.86 0.14,-0.33 1.88,-2.13 2.26,-2.23 0.25,-0.5 0.19,-0.45 0.71,-0.69l0.49 -0.61c0.43,-0.41 1.25,-1.33 1.73,-1.51 0.24,-0.46 0.51,-0.69 0.96,-0.95 0.33,-0.78 3.14,-3.22 3.93,-3.97l3.79 -3.69c0.29,-0.19 -0.03,-0.04 0.27,-0.12 0.28,-0.55 0.5,-0.63 1.03,-1.14 0.39,-0.37 0.68,-0.65 1.08,-1.02 0.4,-0.38 0.68,-0.64 1.03,-1.06 0.19,-0.22 0.28,-0.38 0.46,-0.58l0.52 -0.46c0.08,-0.43 0.41,-0.77 0.66,-1.21 0.22,-0.4 0.32,-0.86 0.62,-1.17 0.46,-1.85 0.86,-2.78 0.77,-4.95 -0.09,-2.07 -0.59,-2.85 -1.08,-4.49 -0.03,-0.02 -1.18,-1.77 -1.39,-2.04 -0.46,-0.6 -1.09,-1.28 -1.7,-1.75 -1.8,-1.38 -2.31,-1.35 -4.54,-2.22 -0.81,-0.11 -3.2,-0.28 -3.7,-0.66 -0.75,0.07 -1.57,-0.09 -2.3,-0.23l-2.93 -0.38c-0.13,-0.02 -0.36,-0.06 -0.5,-0.1 -0.35,-0.11 -0.18,-0.04 -0.36,-0.15 -0.71,0.15 -9.9,-1.18 -11.2,-1.46 -0.86,-0.08 -3.57,-0.23 -4.13,-0.67 -2.14,0.24 -4.14,-1.64 -4.81,-2.84 -0.4,-0.72 -2.38,-4.64 -2.4,-5.17l-0.3 -0.37c-0.08,-0.12 -0.16,-0.29 -0.21,-0.4l-2.57 -5.48c-0.32,-0.32 -2.72,-5.25 -2.75,-5.79 -0.45,-0.39 -0.54,-0.88 -0.88,-1.56 -0.27,-0.54 -0.51,-1.02 -0.74,-1.51 -0.48,-1.03 -1.17,-2.1 -1.47,-3.14 -0.29,-0.22 -1.22,-1.79 -1.69,-2.25 -0.35,-0.35 -0.72,-0.74 -1.07,-1.02 -0.33,-0.26 -0.81,-0.54 -1.02,-0.84 -1.04,-0.34 -1.89,-0.97 -3.25,-1.34 -1.46,-0.41 -2.61,-0.43 -4.18,-0.35 -0.77,0.11 -1.61,0.29 -2.34,0.54 -0.71,0.24 -1.47,0.71 -2.03,0.78z"/>
 </g>
</svg>
