<?xml version="1.0" encoding="UTF-8"?>
<!DOCTYPE svg PUBLIC "-//W3C//DTD SVG 1.1//EN" "http://www.w3.org/Graphics/SVG/1.1/DTD/svg11.dtd">
<!-- Creator: CorelDRAW 2021 (64-Bit) -->
<svg xmlns="http://www.w3.org/2000/svg" xml:space="preserve" width="0.992362in" height="1.46846in" version="1.1" style="shape-rendering:geometricPrecision; text-rendering:geometricPrecision; image-rendering:optimizeQuality; fill-rule:evenodd; clip-rule:evenodd"
viewBox="0 0 142.14 210.34"
 xmlns:xlink="http://www.w3.org/1999/xlink"
 xmlns:xodm="http://www.corel.com/coreldraw/odm/2003">
 <defs>
  <style type="text/css">
   <![CDATA[
    .fil0 {fill:black}
   ]]>
  </style>
 </defs>
 <g id="Layer_x0020_1">
  <metadata id="CorelCorpID_0Corel-Layer"/>
  <g id="_2710596704784">
   <path class="fil0" d="M31.22 90.79l0 -26.7c0,-9.6 7.72,-17.67 16.02,-17.67l47.65 0c8.68,0 16.02,8.24 16.02,18.49l0 25.88c0,13.81 -6.02,25.87 -16.61,33.51 -20.44,14.76 -49.05,7.28 -59.8,-16.68 -2.04,-4.55 -3.29,-10.26 -3.29,-16.84zm35.46 -90.79l8.08 0c10.9,0.59 21.83,3.5 31.17,7.87 3.06,1.43 3.04,3.58 1.7,6.1 1.24,0.59 3.63,1.12 5.23,1.76 1.75,0.7 2.91,1.23 4.56,2.02 2.85,1.36 5.46,3.13 8.06,5.08 3.06,2.3 11.73,11.18 11.73,14.56 0,2.17 -2.68,3.34 -5.48,8.9 -3.35,6.63 -2.32,17.54 -2.32,26.43 0,4.61 1.23,10.68 -3.29,10.68 -2.6,0 -4.11,-0.86 -4.11,-5.34 0,-8.59 -0.66,-23.57 1.59,-30.86 1.78,-5.77 2.52,-5.93 5.39,-10.22 -3.66,-5.46 -9.78,-10.46 -16.16,-13.42 -12.24,-5.69 -22.05,-1.68 -22.05,-7.53 0,-2.63 1.54,-3.89 4.11,-4.11l0 -0.82c-1.6,-0.13 -4.21,-1.16 -5.83,-1.56 -13.45,-3.34 -26.59,-3.74 -39.72,1.61 -11.76,4.8 -19.91,13.75 -24.65,25.47 -5.53,13.71 -4.16,29.43 -4.16,44.31 0,2.57 1.91,4.14 3.7,5.34 0,-5.89 0,-11.78 0,-17.67 0,-7.15 -0.2,-10.39 2.18,-15.48 1.78,-3.82 4.9,-7.29 8.08,-9.58 2.87,-2.07 8.23,-4.51 13.15,-4.51l46.83 0c5.77,0 10.64,2.57 14.74,5.8 4.95,3.91 8.68,10.71 8.68,17.2l0 33.28c0,13.2 -8.74,26.87 -18.66,34.34 -7.14,5.38 -21.14,10.76 -30.12,9.51 -6.61,-0.92 -4.37,-0.35 -11.21,-1.94 0,3.34 -1.42,4.72 -1.64,7.39 1.55,0.36 1.78,0.77 3.08,1.44 8.44,4.33 14.12,2.11 17.87,2.22 4.66,0.14 5.49,6.33 -0.16,7.28 -10.6,1.77 -16.43,-0.7 -24.9,-5.18 -2.76,1.85 -2.87,3.23 -8.27,5.29 -8.02,3.06 -17.7,-1.37 -29.43,11.24 -8.79,9.45 -7.08,20.75 -7.08,33.59 0,4.44 0.76,9.86 -3.7,9.86 -2.39,0 -3.7,-1.6 -3.7,-3.7l0 -21.36c0,-14.56 9.71,-26.45 19.58,-31.36 11.01,-5.48 14.11,-3.01 20.78,-4.69 5.98,-1.51 10.58,-7.48 10.58,-14.89 -3.07,-0.71 -8.01,-4.64 -10.33,-6.51 -9.23,-7.43 -16.37,-21.31 -16.37,-33.75 -3.03,-1.45 -5.54,-2.04 -7.59,-4.74 -1.8,-2.38 -3.51,-4.86 -3.51,-8.82l0 -21.77c0,-12.25 3.52,-24.08 9.17,-33.56 2.11,-3.54 6.5,-9.16 9.67,-11.69 2.62,-2.09 5.11,-4.13 8.15,-5.82 5.83,-3.24 8.71,-4.42 15.32,-6.04 3.64,-0.89 7.4,-1.42 11.22,-1.64z"/>
   <path class="fil0" d="M86.68 144.61c0,4.24 9.26,12.02 16.84,12.33 5.14,0.21 8.93,0.52 12.75,2.04 3.32,1.33 6.78,3.27 9.14,5.65 11.26,11.35 9.34,18.9 9.34,34.62 -0,6.5 -1.07,11.09 4.52,11.09 1.49,0 2.88,-2 2.88,-3.7l0 -21.36c0,-7.32 -2.57,-13.55 -5.31,-18.1 -6.42,-10.67 -17.69,-16.93 -30.44,-17.21 -3.72,-0.08 -6.83,-1.3 -9.04,-2.88 -4.76,-3.41 -3.09,-5.76 -7.38,-5.76 -1.95,0 -3.29,1.67 -3.29,3.29z"/>
   <path class="fil0" d="M92.43 195.96c0,4.97 7.69,3.7 13.15,3.7 6.34,0 5.56,-7.39 0.82,-7.39 -6.61,0 -13.97,-1.4 -13.97,3.7z"/>
  </g>
 </g>
</svg>
